{"accessors":[{"name":"Andy_GEO_1_positions","componentType":5126,"count":1416,"min":[-0.08624999970197678,0,-0.05624999850988388],"max":[0.08624999970197678,0.20705999433994293,0.05624999850988388],"type":"VEC3","bufferView":0,"byteOffset":0},{"name":"Andy_GEO_1_normals","componentType":5126,"count":1416,"min":[-0.9999809861183167,-1,-0.9999809861183167],"max":[0.9999809861183167,1,0.9999809861183167],"type":"VEC3","bufferView":0,"byteOffset":16992},{"name":"Andy_GEO_1_texcoords","componentType":5126,"count":1416,"min":[0.010462000034749508,0.016286000609397888],"max":[0.9837139844894409,0.9670720100402832],"type":"VEC2","bufferView":1,"byteOffset":0},{"name":"Andy_GEO_1_0_indices","componentType":5123,"count":6912,"min":[0],"max":[1415],"type":"SCALAR","bufferView":2,"byteOffset":0}],"asset":{"generator":"obj2gltf","version":"2.0"},"buffers":[{"name":"input","byteLength":59136,"uri":"data:application/octet-stream;base64,"}],"bufferViews":[{"name":"bufferView_0","buffer":0,"byteLength":33984,"byteOffset":0,"byteStride":12,"target":34962},{"name":"bufferView_1","buffer":0,"byteLength":11328,"byteOffset":33984,"byteStride":8,"target":34962},{"name":"bufferView_2","buffer":0,"byteLength":13824,"byteOffset":45312,"target":34963}],"materials":[{"name":"default","pbrMetallicRoughness":{"baseColorFactor":[0.5,0.5,0.5,1],"metallicFactor":0,"roughnessFactor":1},"emissiveFactor":[0,0,0],"alphaMode":"OPAQUE","doubleSided":false}],"meshes":[{"name":"Andy_GEO_1","primitives":[{"attributes":{"POSITION":0,"NORMAL":1,"TEXCOORD_0":2},"indices":3,"material":0,"mode":4}]}],"nodes":[{"name":"Andy_GEO","mesh":0}],"scene":0,"scenes":[{"nodes":[0]}]}
