{"asset":{"version":"2.0","generator":"babylon.js glTF exporter for 3ds max 2019 v1.2.40","copyright":"2018 (c) BabylonJS"},"extensionsUsed":["KHR_lights"],"scene":0,"scenes":[{"nodes":[0,1,3,9,11,13,14,15,16,17,18,19,20,21,22],"extensions":{"KHR_lights":{"light":0}}}],"nodes":[{"mesh":0,"translation":[1.87500072,0.0,-1.99999928],"rotation":[0.0,0.0,0.0,1.0],"scale":[1.0,1.0,1.0],"name":"Floor"},{"children":[2],"mesh":1,"translation":[1.82199991,0.0,-4.15],"rotation":[0.0,0.0,0.0,1.0],"scale":[1.0,1.0,1.0],"name":"Glass wall"},{"mesh":2,"translation":[0.9280001,0.0,0.03000021],"rotation":[0.7071068,0.0,0.0,0.7071067],"scale":[1.0,1.0,1.0],"name":"PivotDoor001"},{"children":[4,5,6,7,8],"mesh":3,"translation":[1.2094965,1.00000012,-1.99350774],"rotation":[0.0,0.0,0.0,1.0],"scale":[1.0,1.0,1.0],"name":"Table"},{"mesh":4,"translation":[-1.09949648,-1.00000012,-0.349428773],"rotation":[0.0,0.0,0.0,1.0],"scale":[1.0,1.0,1.0],"name":"Cylinder001"},{"mesh":5,"translation":[-1.09949648,-1.00000012,0.336444378],"rotation":[0.0,0.0,0.0,1.0],"scale":[1.0,1.0,1.0],"name":"Cylinder002"},{"mesh":6,"translation":[-0.00949645,-1.00000012,0.593507767],"rotation":[0.0,0.0,0.0,1.0],"scale":[1.0,1.0,1.0],"name":"Cylinder003"},{"mesh":7,"translation":[-0.00949645,-1.00000012,-0.606492162],"rotation":[0.0,0.0,0.0,1.0],"scale":[1.0,1.0,1.0],"name":"Cylinder004"},{"mesh":8,"translation":[0.505007,-1.00000012,-0.006492138],"rotation":[0.0,0.0,0.0,1.0],"scale":[1.0,1.0,1.0],"name":"Cylinder005"},{"children":[10],"mesh":9,"translation":[0.128799945,1.4314115,-2.52126122],"rotation":[0.49999997,-0.50000006,0.5000001,0.49999997],"scale":[1.0,1.0,1.0],"name":"Screen"},{"mesh":10,"translation":[1.089046,1.61716354,1.4314115],"rotation":[0.7071067,-1.37678782E-07,0.7071068,1.99496E-07],"scale":[1.0,1.0,1.0],"name":"Plane001"},{"children":[12],"mesh":9,"translation":[0.128799945,1.4314115,-1.46326089],"rotation":[0.49999997,-0.50000006,0.5000001,0.49999997],"scale":[1.0,1.0,1.0],"name":"Screen001"},{"mesh":11,"translation":[0.0310456753,1.6171639,1.4314115],"rotation":[0.7071067,-3.90559876E-07,0.7071068,2.837897E-07],"scale":[1.0,1.0,1.0],"name":"Object001"},{"mesh":12,"translation":[1.66696167,0.0,-2.25557065],"rotation":[0.0,0.0,0.0,1.0],"scale":[1.0,1.0,1.0],"name":"Main Wall"},{"mesh":13,"translation":[1.05753243,-1.1920929E-07,-2.96982312],"rotation":[0.0,-0.5735765,0.0,0.819152],"scale":[0.99999994,1.0,0.99999994],"name":"Group_001"},{"mesh":13,"translation":[1.85711277,-1.1920929E-07,-2.62206912],"rotation":[0.0,-0.887010932,0.0,0.461748481],"scale":[1.0,1.0,1.0],"name":"Group_004"},{"mesh":13,"translation":[1.855607,-1.1920929E-07,-1.448931],"rotation":[0.0,-0.9396926,0.0,-0.3420202],"scale":[1.0,1.0,1.0],"name":"Group_006"},{"mesh":13,"translation":[0.9202624,-1.1920929E-07,-0.959406],"rotation":[0.0,0.57357645,0.0,0.819152057],"scale":[0.99999994,1.0,0.99999994],"name":"Group_008"},{"mesh":14,"translation":[1.05753243,-1.1920929E-07,-2.96982312],"rotation":[0.0,-0.5735765,0.0,0.819152],"scale":[0.99999994,1.0,0.99999994],"name":"Group_003"},{"mesh":14,"translation":[1.85711277,-1.1920929E-07,-2.62206912],"rotation":[0.0,-0.887010932,0.0,0.461748481],"scale":[1.0,1.0,1.0],"name":"Group_005"},{"mesh":14,"translation":[1.855607,-1.1920929E-07,-1.448931],"rotation":[0.0,-0.9396926,0.0,-0.3420202],"scale":[1.0,1.0,1.0],"name":"Group_007"},{"mesh":14,"translation":[0.9202624,-1.1920929E-07,-0.959406],"rotation":[0.0,0.57357645,0.0,0.819152057],"scale":[0.99999994,1.0,0.99999994],"name":"Group_009"},{"translation":[0.0,0.0,0.0],"rotation":[0.0,0.0,0.0,1.0],"scale":[1.0,1.0,1.0],"name":"Default light"}],"meshes":[{"primitives":[{"attributes":{"POSITION":1,"NORMAL":2,"TEXCOORD_0":3},"indices":0,"mode":4,"material":0}],"name":"Floor"},{"primitives":[{"attributes":{"POSITION":5,"NORMAL":6,"TEXCOORD_0":7},"indices":4,"mode":4,"material":1}],"name":"Glass wall"},{"primitives":[{"attributes":{"POSITION":9,"NORMAL":10,"TEXCOORD_0":11},"indices":8,"mode":4,"material":2}],"name":"PivotDoor001"},{"primitives":[{"attributes":{"POSITION":13,"NORMAL":14,"TEXCOORD_0":15},"indices":12,"mode":4,"material":3}],"name":"Table"},{"primitives":[{"attributes":{"POSITION":17,"NORMAL":18,"TEXCOORD_0":19},"indices":16,"mode":4,"material":4}],"name":"Cylinder001"},{"primitives":[{"attributes":{"POSITION":21,"NORMAL":22,"TEXCOORD_0":23},"indices":20,"mode":4,"material":4}],"name":"Cylinder002"},{"primitives":[{"attributes":{"POSITION":25,"NORMAL":26,"TEXCOORD_0":27},"indices":24,"mode":4,"material":4}],"name":"Cylinder003"},{"primitives":[{"attributes":{"POSITION":29,"NORMAL":30,"TEXCOORD_0":31},"indices":28,"mode":4,"material":4}],"name":"Cylinder004"},{"primitives":[{"attributes":{"POSITION":33,"NORMAL":34,"TEXCOORD_0":35},"indices":32,"mode":4,"material":4}],"name":"Cylinder005"},{"primitives":[{"attributes":{"POSITION":37,"NORMAL":38,"TEXCOORD_0":39},"indices":36,"mode":4,"material":5}],"name":"Screen"},{"primitives":[{"attributes":{"POSITION":41,"NORMAL":42,"TEXCOORD_0":43},"indices":40,"mode":4,"material":6}],"name":"Plane001"},{"primitives":[{"attributes":{"POSITION":45,"NORMAL":46,"TEXCOORD_0":47},"indices":44,"mode":4,"material":6}],"name":"Object001"},{"primitives":[{"attributes":{"POSITION":49,"NORMAL":50,"TEXCOORD_0":51},"indices":48,"mode":4,"material":7}],"name":"Main Wall"},{"primitives":[{"attributes":{"POSITION":53,"NORMAL":54,"TEXCOORD_0":55},"indices":52,"mode":4,"material":8}],"name":"Group_001"},{"primitives":[{"attributes":{"POSITION":57,"NORMAL":58,"TEXCOORD_0":59},"indices":56,"mode":4,"material":4}],"name":"Group_003"}],"accessors":[{"bufferView":0,"componentType":5123,"count":36,"type":"SCALAR","name":"accessorIndices"},{"bufferView":1,"componentType":5126,"count":36,"max":[2.02500057,0.0,2.15000081],"min":[-2.02500057,-0.01,-2.15000081],"type":"VEC3","name":"accessorPositions"},{"bufferView":1,"byteOffset":432,"componentType":5126,"count":36,"type":"VEC3","name":"accessorNormals"},{"bufferView":2,"componentType":5126,"count":36,"type":"VEC2","name":"accessorUVs"},{"bufferView":0,"byteOffset":72,"componentType":5123,"count":84,"type":"SCALAR","name":"accessorIndices"},{"bufferView":1,"byteOffset":864,"componentType":5126,"count":84,"max":[1.92800009,2.775,0.139999866],"min":[-1.82199991,0.0,0.0],"type":"VEC3","name":"accessorPositions"},{"bufferView":1,"byteOffset":1872,"componentType":5126,"count":84,"type":"VEC3","name":"accessorNormals"},{"bufferView":2,"byteOffset":288,"componentType":5126,"count":84,"type":"VEC2","name":"accessorUVs"},{"bufferView":0,"byteOffset":240,"componentType":5123,"count":228,"type":"SCALAR","name":"accessorIndices"},{"bufferView":1,"byteOffset":2880,"componentType":5126,"count":228,"max":[0.919399738,0.0999999046,5.684342E-14],"min":[-0.0253999233,-0.405867577,-2.0054],"type":"VEC3","name":"accessorPositions"},{"bufferView":1,"byteOffset":5616,"componentType":5126,"count":228,"type":"VEC3","name":"accessorNormals"},{"bufferView":2,"byteOffset":960,"componentType":5126,"count":228,"type":"VEC2","name":"accessorUVs"},{"bufferView":0,"byteOffset":696,"componentType":5123,"count":660,"type":"SCALAR","name":"accessorIndices"},{"bufferView":1,"byteOffset":8352,"componentType":5126,"count":660,"max":[0.736793637,-0.234600067,0.744153142],"min":[-1.2094965,-0.2600001,-0.753965259],"type":"VEC3","name":"accessorPositions"},{"bufferView":1,"byteOffset":16272,"componentType":5126,"count":660,"type":"VEC3","name":"accessorNormals"},{"bufferView":2,"byteOffset":2784,"componentType":5126,"count":660,"type":"VEC2","name":"accessorUVs"},{"bufferView":0,"byteOffset":2016,"componentType":5123,"count":228,"type":"SCALAR","name":"accessorIndices"},{"bufferView":1,"byteOffset":24192,"componentType":5126,"count":228,"max":[0.0600000024,0.74,0.05706334],"min":[-0.0599999949,0.0,-0.05706334],"type":"VEC3","name":"accessorPositions"},{"bufferView":1,"byteOffset":26928,"componentType":5126,"count":228,"type":"VEC3","name":"accessorNormals"},{"bufferView":2,"byteOffset":8064,"componentType":5126,"count":228,"type":"VEC2","name":"accessorUVs"},{"bufferView":0,"byteOffset":2472,"componentType":5123,"count":228,"type":"SCALAR","name":"accessorIndices"},{"bufferView":1,"byteOffset":29664,"componentType":5126,"count":228,"max":[0.0600000024,0.74,0.05706334],"min":[-0.0599999949,0.0,-0.05706334],"type":"VEC3","name":"accessorPositions"},{"bufferView":1,"byteOffset":32400,"componentType":5126,"count":228,"type":"VEC3","name":"accessorNormals"},{"bufferView":2,"byteOffset":9888,"componentType":5126,"count":228,"type":"VEC2","name":"accessorUVs"},{"bufferView":0,"byteOffset":2928,"componentType":5123,"count":228,"type":"SCALAR","name":"accessorIndices"},{"bufferView":1,"byteOffset":35136,"componentType":5126,"count":228,"max":[0.0599999428,0.74,0.05706334],"min":[-0.0599999428,0.0,-0.05706334],"type":"VEC3","name":"accessorPositions"},{"bufferView":1,"byteOffset":37872,"componentType":5126,"count":228,"type":"VEC3","name":"accessorNormals"},{"bufferView":2,"byteOffset":11712,"componentType":5126,"count":228,"type":"VEC2","name":"accessorUVs"},{"bufferView":0,"byteOffset":3384,"componentType":5123,"count":228,"type":"SCALAR","name":"accessorIndices"},{"bufferView":1,"byteOffset":40608,"componentType":5126,"count":228,"max":[0.0599999428,0.74,0.05706334],"min":[-0.0599999428,0.0,-0.05706334],"type":"VEC3","name":"accessorPositions"},{"bufferView":1,"byteOffset":43344,"componentType":5126,"count":228,"type":"VEC3","name":"accessorNormals"},{"bufferView":2,"byteOffset":13536,"componentType":5126,"count":228,"type":"VEC2","name":"accessorUVs"},{"bufferView":0,"byteOffset":3840,"componentType":5123,"count":228,"type":"SCALAR","name":"accessorIndices"},{"bufferView":1,"byteOffset":46080,"componentType":5126,"count":228,"max":[0.0599999428,0.740000248,0.05706334],"min":[-0.0599999428,0.0,-0.05706346],"type":"VEC3","name":"accessorPositions"},{"bufferView":1,"byteOffset":48816,"componentType":5126,"count":228,"type":"VEC3","name":"accessorNormals"},{"bufferView":2,"byteOffset":15360,"componentType":5126,"count":228,"type":"VEC2","name":"accessorUVs"},{"bufferView":0,"byteOffset":4296,"componentType":5123,"count":78,"type":"SCALAR","name":"accessorIndices"},{"bufferView":1,"byteOffset":51552,"componentType":5126,"count":78,"max":[0.5210643,0.07639672,0.306400061],"min":[-0.536936045,0.012605913,-0.306400061],"type":"VEC3","name":"accessorPositions"},{"bufferView":1,"byteOffset":52488,"componentType":5126,"count":78,"type":"VEC3","name":"accessorNormals"},{"bufferView":2,"byteOffset":17184,"componentType":5126,"count":78,"type":"VEC2","name":"accessorUVs"},{"bufferView":0,"byteOffset":4452,"componentType":5123,"count":6,"type":"SCALAR","name":"accessorIndices"},{"bufferView":1,"byteOffset":53424,"componentType":5126,"count":6,"max":[-1.13001132,1.603551,-0.572981358],"min":[-1.73281157,1.60355031,-1.62098193],"type":"VEC3","name":"accessorPositions"},{"bufferView":1,"byteOffset":53496,"componentType":5126,"count":6,"type":"VEC3","name":"accessorNormals"},{"bufferView":2,"byteOffset":17808,"componentType":5126,"count":6,"type":"VEC2","name":"accessorUVs"},{"bufferView":0,"byteOffset":4464,"componentType":5123,"count":6,"type":"SCALAR","name":"accessorIndices"},{"bufferView":1,"byteOffset":53568,"componentType":5126,"count":6,"max":[-1.13001144,1.60355055,0.486216366],"min":[-1.73281169,1.60354984,-0.561784148],"type":"VEC3","name":"accessorPositions"},{"bufferView":1,"byteOffset":53640,"componentType":5126,"count":6,"type":"VEC3","name":"accessorNormals"},{"bufferView":2,"byteOffset":17856,"componentType":5126,"count":6,"type":"VEC2","name":"accessorUVs"},{"bufferView":0,"byteOffset":4476,"componentType":5123,"count":84,"type":"SCALAR","name":"accessorIndices"},{"bufferView":1,"byteOffset":53712,"componentType":5126,"count":84,"max":[2.23303962,2.775,2.40557218],"min":[-1.81696153,0.0,-1.89442945],"type":"VEC3","name":"accessorPositions"},{"bufferView":1,"byteOffset":54720,"componentType":5126,"count":84,"type":"VEC3","name":"accessorNormals"},{"bufferView":2,"byteOffset":17904,"componentType":5126,"count":84,"type":"VEC2","name":"accessorUVs"},{"bufferView":0,"byteOffset":4644,"componentType":5123,"count":2523,"type":"SCALAR","name":"accessorIndices"},{"bufferView":1,"byteOffset":55728,"componentType":5126,"count":2523,"max":[0.274163723,0.8081386,0.231448412],"min":[-0.252248764,0.393816471,-0.226614],"type":"VEC3","name":"accessorPositions"},{"bufferView":1,"byteOffset":86004,"componentType":5126,"count":2523,"type":"VEC3","name":"accessorNormals"},{"bufferView":2,"byteOffset":18576,"componentType":5126,"count":2523,"type":"VEC2","name":"accessorUVs"},{"bufferView":0,"byteOffset":9692,"componentType":5123,"count":3222,"type":"SCALAR","name":"accessorIndices"},{"bufferView":1,"byteOffset":116280,"componentType":5126,"count":3222,"max":[0.213038921,0.41339013,0.2043122],"min":[-0.191610336,-0.003555745,-0.19932127],"type":"VEC3","name":"accessorPositions"},{"bufferView":1,"byteOffset":154944,"componentType":5126,"count":3222,"type":"VEC3","name":"accessorNormals"},{"bufferView":2,"byteOffset":38760,"componentType":5126,"count":3222,"type":"VEC2","name":"accessorUVs"}],"bufferViews":[{"buffer":0,"byteLength":16136,"name":"bufferViewScalar"},{"buffer":0,"byteOffset":16136,"byteLength":193608,"byteStride":12,"name":"bufferViewFloatVec3"},{"buffer":0,"byteOffset":209744,"byteLength":64536,"byteStride":8,"name":"bufferViewFloatVec2"}],"buffers":[{"uri":"GLTF_TextExport.bin","byteLength":274280}],"materials":[{"pbrMetallicRoughness":{"baseColorFactor":[0.5,0.5,0.5,1.0],"metallicFactor":0.0,"roughnessFactor":0.0},"emissiveFactor":[0.0,0.0,0.0],"alphaMode":"OPAQUE","name":"Material #8"},{"pbrMetallicRoughness":{"baseColorFactor":[0.5,0.5,0.5,0.0600000024],"metallicFactor":0.0,"roughnessFactor":0.0},"emissiveFactor":[0.0,0.0,0.0],"alphaMode":"BLEND","name":"Glass"},{"pbrMetallicRoughness":{"baseColorFactor":[0.345323741,0.1392226,0.0422338247,1.0],"metallicFactor":0.0,"roughnessFactor":0.78},"emissiveFactor":[0.0,0.0,0.0],"alphaMode":"OPAQUE","name":"Material #9"},{"pbrMetallicRoughness":{"baseColorFactor":[0.8078432,0.8078432,0.8078432,1.0],"metallicFactor":0.0,"roughnessFactor":0.35},"emissiveFactor":[0.0,0.0,0.0],"alphaMode":"OPAQUE","name":"Material #10"},{"pbrMetallicRoughness":{"baseColorFactor":[0.914,0.914,0.92,1.0],"metallicFactor":1.0,"roughnessFactor":0.29},"emissiveFactor":[0.0,0.0,0.0],"alphaMode":"OPAQUE","name":"Metal"},{"pbrMetallicRoughness":{"baseColorFactor":[0.003921569,0.003921569,0.003921569,1.0],"metallicFactor":0.0,"roughnessFactor":0.08},"emissiveFactor":[0.0,0.0,0.0],"alphaMode":"OPAQUE","name":"Black Plastic"},{"pbrMetallicRoughness":{"baseColorFactor":[0.03137255,0.03137255,0.03137255,1.0],"metallicFactor":0.0,"roughnessFactor":0.37},"emissiveFactor":[0.0,0.0,0.0],"alphaMode":"OPAQUE","name":"Black Screen"},{"pbrMetallicRoughness":{"baseColorFactor":[1.0,1.0,1.0,1.0],"baseColorTexture":{"index":0,"texCoord":0},"metallicFactor":0.0,"roughnessFactor":0.0},"emissiveFactor":[0.0,0.0,0.0],"alphaMode":"BLEND","name":"Wall"},{"pbrMetallicRoughness":{"baseColorFactor":[0.9960785,0.160784319,0.160784319,1.0],"metallicFactor":0.0,"roughnessFactor":0.0},"emissiveFactor":[0.0,0.0,0.0],"alphaMode":"OPAQUE","name":"red plastic"}],"textures":[{"sampler":0,"source":0,"name":"MainWallMapStripes255_baseColor.png"}],"images":[{"uri":"MainWallMapStripes255_baseColor.png"}],"samplers":[{"magFilter":9729,"minFilter":9987,"wrapS":10497,"wrapT":10497}],"extensions":{"KHR_lights":{"lights":[{"color":[1.0,1.0,1.0],"intensity":1.0,"type":"ambient"}]}}}